# xmcd
#
# Track frame offsets:
# 182
# 18950
# 49812
# 69165
# 94072
# 110435
# 136612
# 156885
# 177870
# 204260
# 231442
# 245810
# 263815
# 302242
# 316720
#
# Disc length: 4457 seconds
#
#
# Revision: 0
# Processed by: cddbd v1.5.1PL2 Copyright (c) Steve Scherf et al.
# Submitted via: FreeRIP 2.944 
#
DISCID=c111670f
DTITLE=Various Artist - Chicago's Fines Blues Ladies
DYEAR=1993
DGENRE=Chicago Blues
TTITLE0=I´m Feeling Good - Deitra Farr
TTITLE1=Mean Old World - Deitra Farr
TTITLE2=Bad Track Record - Zora Young
TTITLE3=Bus Station Blues - Zora Young
TTITLE4=Ride My Automobile - Mary Lane
TTITLE5=You Can't Take Out - Mary Lane
TTITLE6=You Hurt My Feelings - Mary Lane
TTITLE7=Steppin In - Melvina Allen
TTITLE8=Dr. Feelgood - Melvina Allen
TTITLE9=Breakin Up Somebody's Home - Melvina Allen
TTITLE10=Who's Lovin You Tonight - Karen Carroll
TTITLE11=I Got To Have Somebody - Karen Carroll
TTITLE12=Sad And Evil Woman - Bonnie Lee
TTITLE13=Let It Roll - Bonnie Lee
TTITLE14=What's The Matter - Bonnie Lee
EXTD=
EXTT0=
EXTT1=
EXTT2=
EXTT3=
EXTT4=
EXTT5=
EXTT6=
EXTT7=
EXTT8=
EXTT9=
EXTT10=
EXTT11=
EXTT12=
EXTT13=
EXTT14=
PLAYORDER=
